<svg xmlns="http://www.w3.org/2000/svg" xmlns:xlink="http://www.w3.org/1999/xlink" width="500" zoomAndPan="magnify" viewBox="0 0 375 374.999991" height="500" preserveAspectRatio="xMidYMid meet" version="1.0"><defs><g/><clipPath id="c9eaf9cc80"><path d="M 14 288 L 60 288 L 60 333 L 14 333 Z M 14 288 " clip-rule="nonzero"/></clipPath><clipPath id="748b6a4504"><path d="M 10.867188 293.257812 L 54.371094 284.644531 L 62.980469 328.148438 L 19.480469 336.757812 Z M 10.867188 293.257812 " clip-rule="nonzero"/></clipPath><clipPath id="3c9a914037"><path d="M 32.617188 288.953125 C 20.605469 291.332031 12.796875 302.996094 15.175781 315.007812 C 17.550781 327.019531 29.21875 334.832031 41.230469 332.453125 C 53.242188 330.074219 61.054688 318.410156 58.675781 306.398438 C 56.296875 294.382812 44.632812 286.574219 32.617188 288.953125 Z M 32.617188 288.953125 " clip-rule="nonzero"/></clipPath><clipPath id="fb547fae2f"><path d="M 0 0 L 46 0 L 46 45 L 0 45 Z M 0 0 " clip-rule="nonzero"/></clipPath><clipPath id="2c19c71246"><path d="M -3.132812 5.257812 L 40.371094 -3.355469 L 48.980469 40.148438 L 5.480469 48.757812 Z M -3.132812 5.257812 " clip-rule="nonzero"/></clipPath><clipPath id="b330524a80"><path d="M 18.617188 0.953125 C 6.605469 3.332031 -1.203125 14.996094 1.175781 27.007812 C 3.550781 39.019531 15.21875 46.832031 27.230469 44.453125 C 39.242188 42.074219 47.054688 30.410156 44.675781 18.398438 C 42.296875 6.382812 30.632812 -1.425781 18.617188 0.953125 Z M 18.617188 0.953125 " clip-rule="nonzero"/></clipPath><clipPath id="1daa12d03d"><rect x="0" width="46" y="0" height="45"/></clipPath><clipPath id="53871563b8"><path d="M 0.71875 0 L 218.640625 0 L 218.640625 375 L 0.71875 375 Z M 0.71875 0 " clip-rule="nonzero"/></clipPath><clipPath id="0de82bb685"><rect x="0" width="219" y="0" height="375"/></clipPath><clipPath id="007d28d220"><rect x="0" width="219" y="0" height="375"/></clipPath></defs><g transform="matrix(1, 0, 0, 1, 78, 0)"><g clip-path="url(#007d28d220)"><g clip-path="url(#c9eaf9cc80)"><g clip-path="url(#748b6a4504)"><g clip-path="url(#3c9a914037)"><g transform="matrix(1, 0, 0, 1, 14, 288)"><g clip-path="url(#1daa12d03d)"><g clip-path="url(#fb547fae2f)"><g clip-path="url(#2c19c71246)"><g clip-path="url(#b330524a80)"><path fill="#5170ff" d="M -3.132812 5.257812 L 40.371094 -3.355469 L 48.980469 40.148438 L 5.480469 48.757812 Z M -3.132812 5.257812 " fill-opacity="1" fill-rule="nonzero"/></g></g></g></g></g></g></g></g><g clip-path="url(#53871563b8)"><g><g clip-path="url(#0de82bb685)"><g fill="#ff914d" fill-opacity="1"><g transform="translate(1.412615, 277.506805)"><g><path d="M 144.28125 3.125 C 133.34375 3.125 123.53125 0.738281 114.84375 -4.03125 C 106.164062 -8.8125 99.304688 -15.453125 94.265625 -23.953125 C 89.234375 -32.460938 86.71875 -42.101562 86.71875 -52.875 L 86.71875 -132.5625 C 86.71875 -135.34375 86.023438 -137.859375 84.640625 -140.109375 C 83.253906 -142.367188 81.429688 -144.191406 79.171875 -145.578125 C 76.910156 -146.972656 74.394531 -147.671875 71.625 -147.671875 C 68.84375 -147.671875 66.320312 -146.972656 64.0625 -145.578125 C 61.8125 -144.191406 60.035156 -142.367188 58.734375 -140.109375 C 57.429688 -137.859375 56.78125 -135.34375 56.78125 -132.5625 L 56.78125 0 L 14.0625 0 L 14.0625 -129.4375 C 14.0625 -140.375 16.535156 -150.007812 21.484375 -158.34375 C 26.429688 -166.675781 33.289062 -173.273438 42.0625 -178.140625 C 50.832031 -183.003906 60.6875 -185.4375 71.625 -185.4375 C 82.726562 -185.4375 92.617188 -183.003906 101.296875 -178.140625 C 109.984375 -173.273438 116.84375 -166.675781 121.875 -158.34375 C 126.914062 -150.007812 129.4375 -140.375 129.4375 -129.4375 L 129.4375 -49.75 C 129.4375 -46.96875 130.128906 -44.40625 131.515625 -42.0625 C 132.910156 -39.71875 134.691406 -37.894531 136.859375 -36.59375 C 139.023438 -35.289062 141.410156 -34.640625 144.015625 -34.640625 C 146.796875 -34.640625 149.359375 -35.289062 151.703125 -36.59375 C 154.046875 -37.894531 155.910156 -39.71875 157.296875 -42.0625 C 158.691406 -44.40625 159.390625 -46.96875 159.390625 -49.75 L 159.390625 -182.3125 L 201.84375 -182.3125 L 201.84375 -52.875 C 201.84375 -42.101562 199.320312 -32.460938 194.28125 -23.953125 C 189.25 -15.453125 182.390625 -8.8125 173.703125 -4.03125 C 165.023438 0.738281 155.21875 3.125 144.28125 3.125 Z M 144.28125 3.125 "/></g></g></g></g></g></g></g></g></svg>