<svg xmlns="http://www.w3.org/2000/svg" xmlns:xlink="http://www.w3.org/1999/xlink" width="900" zoomAndPan="magnify" viewBox="0 0 675 675.000002" height="900" preserveAspectRatio="xMidYMid meet" version="1.0"><defs><g/><clipPath id="438b7503c7"><rect x="0" width="499" y="0" height="573"/></clipPath></defs><g transform="matrix(1, 0, 0, 1, 89, 90)"><g clip-path="url(#438b7503c7)"><g fill="#ff914d" fill-opacity="1"><g transform="translate(3.55271, 443.299439)"><g><path d="M 169.222656 -154.308594 C 169.222656 -154.308594 299.4375 -77.441406 439.402344 30.976562 L 454.890625 21.796875 C 454.890625 21.796875 438.253906 -110.710938 438.253906 -204.214844 C 438.253906 -330.984375 459.480469 -414.734375 459.480469 -414.734375 C 436.535156 -410.71875 416.457031 -409.574219 397.527344 -409.574219 C 360.242188 -409.574219 329.839844 -413.015625 298.289062 -418.179688 C 298.289062 -418.179688 315.496094 -325.824219 315.496094 -263.871094 L 315.496094 -238.632812 L 314.351562 -238.632812 C 302.878906 -242.644531 225.4375 -303.453125 154.878906 -354.503906 C 106.121094 -389.496094 65.96875 -432.519531 65.96875 -432.519531 L 49.332031 -427.929688 C 49.332031 -427.929688 51.054688 -345.898438 51.054688 -293.125 C 51.054688 -72.277344 28.109375 6.308594 28.109375 6.308594 C 53.347656 2.292969 81.457031 1.722656 106.695312 1.722656 C 133.65625 1.722656 165.78125 2.867188 193.886719 8.03125 C 193.886719 8.03125 169.222656 -45.890625 169.222656 -137.097656 Z M 169.222656 -154.308594 "/></g></g></g></g></g></svg>