<!--
  Copyright 2025-2026 Rafał Wabik - IceG - From eko.one.pl forum
  https://github.com/4IceG
  MIT License
-->
<svg width="48" height="48" version="1.1" viewBox="0 0 12.7 12.7" xml:space="preserve" xmlns="http://www.w3.org/2000/svg"><defs><filter id="a" x="-.1216" y="-.5614" width="1.243" height="2.123" color-interpolation-filters="sRGB"><feFlood flood-color="rgb(0,0,0)" in="SourceGraphic" result="flood"/><feGaussianBlur in="SourceGraphic" result="blur" stdDeviation="0.100000"/><feOffset dx="0.000000" dy="0.000000" in="blur" result="offset"/><feComposite in="flood" in2="offset" operator="in" result="comp1"/><feComposite in="SourceGraphic" in2="comp1" result="fbSourceGraphic"/><feColorMatrix in="fbSourceGraphic" result="fbSourceGraphicAlpha" values="0 0 0 -1 0 0 0 0 -1 0 0 0 0 -1 0 0 0 0 1 0"/><feFlood flood-color="rgb(255,255,255)" in="fbSourceGraphic" result="flood"/><feGaussianBlur in="fbSourceGraphic" result="blur" stdDeviation="0.100000"/><feOffset dx="0.000000" dy="0.000000" in="blur" result="offset"/><feComposite in="flood" in2="offset" operator="in" result="comp1"/><feComposite in="fbSourceGraphic" in2="comp1" result="comp2"/></filter><filter id="b" x="-.1294" y="-.4062" width="1.259" height="1.939" color-interpolation-filters="sRGB"><feFlood flood-color="rgb(0,0,0)" in="SourceGraphic" result="flood"/><feGaussianBlur in="SourceGraphic" result="blur" stdDeviation="0.200000"/><feOffset dx="0.000000" dy="0.000000" in="blur" result="offset"/><feComposite in="offset" in2="flood" operator="in" result="comp1"/><feComposite in="comp1" in2="comp1" operator="atop" result="comp2"/></filter></defs><g><g display="none" fill="#fff" filter="url(#b)"><ellipse transform="matrix(1.172 0 0 1.176 -.9828 -1.265)" cx="6.244" cy="6.975" rx="4.23" ry="4.197" display="none" filter="url(#a)" style="paint-order:stroke fill markers"/><rect transform="matrix(-.8208 .8391 .836 .8238 -.951 -1.646)" x="-1.56" y="3.974" width="4.41" height=".855" rx=".6935" filter="url(#a)" style="paint-order:stroke fill markers"/><rect transform="matrix(.8208 .8391 -.836 .8238 -.9828 -1.646)" x="7.22" y="-4.969" width="4.41" height=".855" rx=".6935" filter="url(#a)" style="paint-order:stroke fill markers"/></g></g><g display="none"><g display="none" fill="#fff" fill-opacity=".1511" filter="url(#b)"><ellipse transform="matrix(1.172 0 0 1.176 -.9828 -1.265)" cx="6.244" cy="6.975" rx="4.23" ry="4.197" display="inline" filter="url(#a)" style="paint-order:stroke fill markers"/><rect transform="matrix(-.8208 .8391 .836 .8238 -.951 -1.646)" x="-1.56" y="3.974" width="4.41" height=".855" rx=".6935" display="inline" filter="url(#a)" style="paint-order:stroke fill markers"/><rect transform="matrix(.8208 .8391 -.836 .8238 -.9828 -1.646)" x="7.22" y="-4.969" width="4.41" height=".855" rx=".6935" display="inline" filter="url(#a)" style="paint-order:stroke fill markers"/></g></g><g><ellipse transform="matrix(1.172 0 0 1.176 -.9828 -1.265)" cx="6.244" cy="6.975" rx="4.23" ry="4.197" fill="#fff" fill-opacity=".04534" filter="url(#a)" stroke="#000" stroke-linejoin="round" stroke-opacity=".7531" stroke-width=".2956" style="paint-order:stroke fill markers"/><rect transform="matrix(.8208 .8391 -.836 .8238 -.9828 -1.646)" x="7.22" y="-4.969" width="4.41" height=".855" rx=".6935" fill="#1a1a1a" filter="url(#a)" style="paint-order:stroke fill markers"/><path transform="matrix(.399 -1.015 1.033 .3952 2.578 -2.635)" d="m-3.237 5.853a3.947 4.426 0 0 1-2.126 3.927l-1.821-3.927z" fill="#00b8e0" filter="url(#a)" style="paint-order:stroke fill markers"/></g></svg>
