<!--
  Copyright 2025-2026 Rafał Wabik - IceG - From eko.one.pl forum
  https://github.com/4IceG
  MIT License
-->
<svg xmlns="http://www.w3.org/2000/svg" viewBox="-0.3 -0.3 48.6 32.6" width="48" height="32">
  <defs>
    <linearGradient id="grayGrad" x1="0" y1="0" x2="0" y2="1">
      <stop offset="0%" stop-color="#E8E8E8"/>
      <stop offset="100%" stop-color="#F9F9F9"/>
    </linearGradient>
    <linearGradient id="greenGrad" x1="0" y1="0" x2="0" y2="1">
      <stop offset="0%" stop-color="#7CFF52"/>
      <stop offset="50%" stop-color="#6BFF3E"/>
      <stop offset="100%" stop-color="#5FEC34"/>
    </linearGradient>
    <filter id="shadow" x="-20%" y="-20%" width="140%" height="140%">
      <feDropShadow dx="0" dy="1" stdDeviation="0.6" flood-color="#000000" flood-opacity="0.15"/>
    </filter>
  </defs>

  <g filter="url(#shadow)" stroke="#333333" stroke-width="0.4" stroke-linejoin="round">
    <rect x="0.5" y="25.73" width="7" height="5.97" rx="1.2" fill="url(#greenGrad)"/>
    <rect x="10.25" y="20.22" width="7" height="11.48" rx="1.2" fill="url(#greenGrad)"/>
    <rect x="20.0" y="14.24" width="7" height="17.46" rx="1.2" fill="url(#greenGrad)"/>
    <rect x="29.75" y="8.27" width="7" height="23.43" rx="1.2" fill="url(#greenGrad)"/>
    <rect x="39.5" y="2.3" width="7" height="29.4" rx="1.2" fill="url(#grayGrad)" fill-opacity="0.5"/>
  </g>

  <g fill="#FFFFFF" opacity="0.45">
    <path d="M2.00 25.73 L3.50 25.73 L2.50 31 L1.00 31 Z"/>
    <path d="M11.75 20.22 L13.25 20.22 L12.25 31 L10.75 31 Z"/>
    <path d="M21.50 14.24 L23.00 14.24 L22.00 31 L20.50 31 Z"/>
    <path d="M31.25 8.27 L32.75 8.27 L31.75 31 L30.25 31 Z"/>
  </g>
</svg>
