<!--
  Copyright 2025-2026 Rafał Wabik - IceG - From eko.one.pl forum
  https://github.com/4IceG
  MIT License
-->
<svg width="32" height="32" version="1.1" viewBox="0 0 8.467 8.467" xml:space="preserve" xmlns="http://www.w3.org/2000/svg"><defs><clipPath id="a"><path d="m1.321 0.04651v8.374h1.549c-0.02673-0.08837-0.04032-0.1804-0.05013-0.2723-0.008371-0.0947-0.009739-0.1897-0.01137-0.2847-9.26e-4 -0.05919-0.001296-0.1186-0.001561-0.1778-0.00322-0.05481 0.01484-0.1064 0.03462-0.1566 0.01232-0.03628 0.03829-0.06289 0.0615-0.09198 0.00563-0.0063 0.01133-0.01299 0.01654-0.01964-0.00724-3.704e-4 -0.01447-6.614e-4 -0.0217-0.00103-0.1156-0.00602-0.1027-0.1221 0.01292-0.1163 0.03892 0.00196 0.07785 0.00354 0.1168 0.00517 0.03617-0.03287 0.09876-0.05147 0.1835-0.03721 0.2067 0.03481 0.4168 0.04724 0.6258 0.06098 0.00971 2.91e-4 0.01922 7.408e-4 0.02894 0.00103 0.1252 0.00458 0.2502 0.01099 0.3752 0.02015 0.02336 4.498e-4 0.0469 6.879e-4 0.07028 5.292e-4 0.07628-5.557e-4 0.1053-0.00376 0.1814-0.0093 0.1703-0.01637 0.34-0.03571 0.5106-0.04858 0.1147-0.00917 0.2298-0.01034 0.3447-0.01654 0.05541-0.00368 0.1109-0.00803 0.1664-0.01085 0.02133-0.00177 0.04287-0.00383 0.06408-0.00672 0.01577-0.00214 0.03039-0.0031 0.04444-0.0031 0.2108-5.45e-5 0.2263 0.2265-0.01034 0.2579-0.02822 0.00374-0.05686 0.00678-0.08527 0.00879-0.05525 0.00279-0.1102 0.00729-0.1654 0.01085-0.03998 0.00212-0.07995 0.00357-0.1199 0.00517 0.1153 0.02049 0.1505 0.1176 0.09353 0.186 0.01285 0.02075 0.0251 0.04213 0.03669 0.06356 0.06642 0.032 0.08902 0.09154 0.06821 0.1426 0.00936 0.02177 0.01853 0.04363 0.02739 0.06563 0.00745 0.01983 0.01497 0.03972 0.02274 0.05943 0.1194 0.0319 0.1468 0.1331 0.08578 0.1959 0.00321 0.00653 0.00654 0.01314 0.00982 0.01964 0.02544 0.04938 0.05173 0.09845 0.0739 0.1493h1.486v-8.374zm1.709 7.417c-0.01172 0.01618-0.02389 0.03212-0.03721 0.04703-0.01609 0.0193-0.03441 0.03685-0.04341 0.06098-0.01442 0.03636-0.0294 0.07323-0.02636 0.1132 2.501e-4 0.05869 6.35e-4 0.1175 0.00156 0.1762 0.00156 0.09155 0.00295 0.1831 0.01085 0.2744 0.0102 0.09643 0.02524 0.193 0.05736 0.2847h0.9111c-0.01698-0.004919-0.03381-0.01007-0.05064-0.0155-0.1185-0.03823-0.1594-0.1159-0.1421-0.1762-0.02371-0.002434-0.04766-0.00498-0.07131-0.007752-0.1634-0.01915-0.2132-0.1329-0.1597-0.2031-0.1761-0.02793-0.2004-0.1865-0.07235-0.2377-0.01294-0.001164-0.02583-0.002275-0.03876-0.003617-0.2006-0.02075-0.229-0.1856-0.1065-0.2403-0.03654-0.00517-0.07322-0.01109-0.1096-0.01757-0.05595-0.00998-0.09642-0.03002-0.123-0.05478zm2.316 0.5447c-0.02516 0.00817-0.05489 0.0129-0.0894 0.01292-0.06069 3.62e-5 -0.1212 4.233e-4 -0.1819 5.291e-4 -0.09855 1.67e-4 -0.197 6.615e-4 -0.2956 0.00103-0.01102 0.00375-0.02231 0.00655-0.03359 0.0093 0.06909 0.00254 0.1381 0.00494 0.2072 0.00672 0.1163 0.00268 0.2325 0.0043 0.3488 0.00517 0.01964-2.86e-5 0.03923-2.238e-4 0.05891 0-5.557e-4 -0.00146-0.00101-0.00267-0.00156-0.00413-0.00422-0.01053-0.00859-0.02103-0.01292-0.03152zm-0.8676 0.2698c0.09998 0.01784 0.2003 0.03463 0.3008 0.04909 0.06178 0.01066 0.1237 0.01795 0.1855 0.02842 0.02646 0.00542 0.05318 0.00932 0.07958 0.01499 0.04652 0.00998 0.08198 0.02778 0.1075 0.04961h0.3793c-0.01607-0.03259-0.03331-0.06482-0.04961-0.09715-0.00384-0.00765-0.00761-0.01557-0.01137-0.02325-0.01761 0.00257-0.03692 0.00387-0.05788 0.0031-0.03738-0.00138-0.07474-0.00146-0.1121-0.00156-0.1179-8.735e-4 -0.2361-0.002434-0.354-0.005168-0.156-0.004022-0.3119-0.0104-0.4677-0.01809z" fill="#f00"/></clipPath></defs><g><path d="m4.233 6.724a2.522 0.7425 0 0 0-2.522 0.7426 2.522 0.7425 0 0 0 2.522 0.7421 2.522 0.7425 0 0 0 2.522-0.7421 2.522 0.7425 0 0 0-2.522-0.7426zm0 0.1049a2.029 0.5554 0 0 1 2.029 0.5555 2.029 0.5554 0 0 1-2.029 0.5555 2.029 0.5554 0 0 1-2.029-0.5555 2.029 0.5554 0 0 1 2.029-0.5555z" fill="#006680" stroke="#404040" stroke-linecap="round" stroke-linejoin="round" stroke-width=".033" style="paint-order:markers stroke fill"/><path d="m4.233 0.04671c-1.608 0-2.912 1.248-2.912 2.786s1.444 4.182 2.912 5.587c1.655-1.583 2.912-4.049 2.912-5.587s-1.304-2.786-2.912-2.786zm0 0.7877a2.096 2.096 0 0 1 2.096 2.096 2.096 2.096 0 0 1-2.096 2.095 2.096 2.096 0 0 1-2.096-2.095 2.096 2.096 0 0 1 2.096-2.096z" clip-path="url(#a)" display="none" fill="#008080" style="paint-order:markers stroke fill"/><path d="m4.233 0.2026c-1.392 0-2.522 1.081-2.522 2.413 0 1.332 1.25 3.622 2.522 4.838 1.433-1.371 2.522-3.506 2.522-4.838 0-1.332-1.129-2.413-2.522-2.413zm0 1.049a1.339 1.339 0 0 1 1.339 1.339 1.339 1.339 0 0 1-1.339 1.339 1.339 1.339 0 0 1-1.339-1.339 1.339 1.339 0 0 1 1.339-1.339z" fill="#00aad4" stroke="#3f3f3f" stroke-linecap="round" stroke-linejoin="round" stroke-width=".03307" style="paint-order:markers stroke fill"/></g></svg>
