<!--
  Copyright 2025-2026 Rafał Wabik - IceG - From eko.one.pl forum
  https://github.com/4IceG
  MIT License
-->
<svg width="48" height="48" version="1.1" viewBox="0 0 12.7 12.7" xml:space="preserve" xmlns="http://www.w3.org/2000/svg" xmlns:xlink="http://www.w3.org/1999/xlink"><defs><linearGradient id="a" x1="3.367" x2="9.428" y1="5.894" y2="10.74" gradientTransform="translate(-.09203 -.2079)" gradientUnits="userSpaceOnUse"><stop stop-color="#fddb6f" offset="0"/><stop stop-color="#f99b02" offset="1"/></linearGradient><filter id="b" x="-.07393" y="-.04038" width="1.154" height="1.094" color-interpolation-filters="sRGB"><feFlood flood-color="rgb(0,0,0)" flood-opacity=".498" in="SourceGraphic" result="flood"/><feGaussianBlur in="SourceGraphic" result="blur" stdDeviation="0.25971326"/><feOffset dx="0.300000" dy="0.300000" in="blur" result="offset"/><feComposite in="flood" in2="offset" operator="in" result="comp1"/><feComposite in="SourceGraphic" in2="comp1" result="fbSourceGraphic"/><feColorMatrix in="fbSourceGraphic" result="fbSourceGraphicAlpha" values="0 0 0 -1 0 0 0 0 -1 0 0 0 0 -1 0 0 0 0 1 0"/><feFlood flood-color="rgb(0,0,0)" flood-opacity=".498" in="fbSourceGraphic" result="flood"/><feGaussianBlur in="fbSourceGraphic" result="blur" stdDeviation="0.300000"/><feOffset dx="0.300000" dy="0.300000" in="blur" result="offset"/><feComposite in="flood" in2="offset" operator="in" result="comp1"/><feComposite in="fbSourceGraphic" in2="comp1" result="fbSourceGraphic"/><feColorMatrix in="fbSourceGraphic" result="fbSourceGraphicAlpha" values="0 0 0 -1 0 0 0 0 -1 0 0 0 0 -1 0 0 0 0 1 0"/><feFlood flood-color="rgb(0,0,0)" flood-opacity=".498" in="fbSourceGraphic" result="flood"/><feGaussianBlur in="fbSourceGraphic" result="blur" stdDeviation="0.200000"/><feOffset dx="-0.400000" dy="0.000000" in="blur" result="offset"/><feComposite in="flood" in2="offset" operator="in" result="comp1"/><feComposite in="fbSourceGraphic" in2="comp1" result="comp2"/></filter></defs><g display="none"><path transform="matrix(.2646 0 0 .2462 0 .3654)" d="m10.63 0.6328-0.3594 0.166c-0.5182 0.2398-0.9426 0.6431-1.154 1.098l-0.1855 0.3965v21.67c-8.488e-4 23.82-0.04002 21.99 0.4746 22.64 0.1402 0.177 0.4443 0.4058 0.7266 0.5469l0.4863 0.2422 27.68-0.04101 0.3828-0.1953c0.4502-0.23 0.8-0.6057 1.031-1.105l0.166-0.3594s0.0027-13.85-0.0049-26.1c-2.54e-4 -0.4089-0.0014-1.072-0.0026-1.481-0.01769-6.361-0.01672-9.287-0.01291-10.62 0.0017-0.5982-0.3519-1.41-0.7943-1.813l-1.087-0.9899c-0.8472-0.7714-1.693-1.545-2.537-2.32l-0.6274-0.5762c-0.8141-0.7477-1.879-1.163-2.985-1.163h-7.443z" display="inline" fill="#dae2e1" fill-opacity=".03" filter="url(#b)" stroke="#000" stroke-linecap="round" stroke-linejoin="round" stroke-width=".1296" style="mix-blend-mode:hard-light;paint-order:markers stroke fill"/></g><g><rect x="3.275" y="5.398" width="6.149" height="6.045" rx=".7136" ry=".7136" fill="url(#a)" stroke="#000" stroke-width=".1"/><g transform="translate(-.09203 -.2079)" stroke="#000" stroke-opacity=".4975"><path d="m9.472 7.541-4.657-0.02644" stroke-width=".09862"/><path d="m4.858 5.636v1.905" stroke-width=".1"/><path d="m6.442 5.605v1.905" stroke-width=".1"/><path d="m8.043 5.605v1.905" stroke-width=".1"/><path d="m9.517 9.496-6.149-0.02644" stroke-width=".1133"/><path d="m4.841 9.476v2.174" stroke-width=".1068"/><path d="m6.442 9.483v2.174" stroke-width=".1068"/><path d="m8.086 9.49v2.174" stroke-width=".1068"/></g><text x="3.582727" y="4.3639469" fill="#a5a5a5" font-family="Calibri" font-size="3.175px" stroke="#000000" stroke-width=".007" xml:space="preserve"><tspan x="3.582727" y="4.3639469" fill="#a5a5a5" font-family="Arial" font-weight="bold" stroke-width=".007">SIM</tspan></text></g><path transform="matrix(1.002 0 0 1 -.00483 0)" d="m2.894 0.5126h5.755c0.3593 0 1.885 1.273 1.885 1.6v9.471c0 0.242-0.1962 0.4382-0.4382 0.4382h-7.255c-0.2534 0-0.4589-0.2055-0.4589-0.4589v-10.54c0-0.2831 0.2295-0.5126 0.5126-0.5126z" fill="#d8d8d8" fill-opacity=".2485" stroke="#262626" stroke-linecap="round" stroke-linejoin="round" stroke-width=".1388" style="paint-order:fill markers stroke"/></svg>
