<!--
  Copyright 2025-2026 Rafał Wabik - IceG - From eko.one.pl forum
  https://github.com/4IceG
  MIT License
-->
<svg width="32" height="32" version="1.1" viewBox="0 0 8.467 8.467" xml:space="preserve" xmlns="http://www.w3.org/2000/svg"><g stroke="#000" stroke-linecap="round" stroke-linejoin="round"><path d="m4.155 0.3664c-0.4348 0-0.785 0.3497-0.785 0.7844v1.696c0 0.0172 4.714e-4 0.03424 0.00155 0.05116-0.00108 0.01692-0.00155 0.03396-0.00155 0.05116v1.696 0.5643c-0.4468 0.2915-0.7162 0.7889-0.7162 1.322-9.62e-5 0.8722 0.707 1.579 1.579 1.579 0.8722 9.62e-5 1.579-0.707 1.579-1.579 5.01e-5 -0.5351-0.2709-1.034-0.7199-1.325v-0.8211-1.436c0-0.0172-9.817e-4 -0.03424-0.002067-0.05116 0.00108-0.01692 0.002067-0.03396 0.002067-0.05116v-1.696c0-0.4348-0.3502-0.7844-0.785-0.7844h-0.1524zm0.02532 0.2708h0.107c0.305 0 0.5509 0.2453 0.5509 0.5504v1.19c0 0.01207-7.944e-4 0.02379-0.00155 0.03566 7.572e-4 0.01187 0.00155 0.02359 0.00155 0.03566v1.008 0.2052 0.371c0.01028 0.00672 0.02044 0.01361 0.03049 0.02067h-0.03049v0.7979c0 0.01207-7.944e-4 0.02379-0.00155 0.03566 7.569e-4 0.01187 0.00155 0.02359 0.00155 0.03566v0.08578l-0.001034 0.1106c0.00473 0.2846 0.08672 0.2746 0.1581 0.339 0.02365 0.01681 0.04675 0.03439 0.06925 0.05271 0.02301 0.01596 0.04371 0.03082 0.05943 0.05013h-0.001034c0.2767 0.2517 0.4345 0.6083 0.4346 0.9824 6.87e-5 0.7338-0.5948 1.329-1.329 1.329-0.7336-2.167e-4 -1.328-0.595-1.328-1.329 2.06e-5 -0.3715 0.2676-0.8128 0.5473-1.07 0.08599-0.06315 0.189-0.1801 0.1798-0.4444l0.00155-0.04341v-0.06305c0-0.01207 2.808e-4 -0.02379 0.001034-0.03566-7.463e-4 -0.01187-0.001034-0.02359-0.001034-0.03566v-0.7979h-0.02791c0.0092-0.00652 0.01851-0.01289 0.02791-0.01912v-0.3726-0.02325-1.19c0-0.01207 2.808e-4 -0.02379 0.001034-0.03566-7.498e-4 -0.01187-0.001034-0.02359-0.001034-0.03566v-1.19c0-0.305 0.2458-0.5504 0.5509-0.5504z" fill="#545454" stroke-width=".0471" style="paint-order:markers stroke fill"/><path d="m4.209 3.101c-0.1347 0-0.2434 0.1081-0.2434 0.2429v0.5255c0 0.00533 1.823e-4 0.01078 5.168e-4 0.01602-3.347e-4 0.00524-5.168e-4 0.01069-5.168e-4 0.01602v0.525 0.07596 0.4806c0 0.00533 1.823e-4 0.01078 5.168e-4 0.01602-3.347e-4 0.00524-5.168e-4 0.01069-5.168e-4 0.01602v0.3318l-0.003101-0.002584c0.001556 0.01577 0.002578 0.03085 0.003101 0.04548 5.612e-4 0.0157 5.472e-4 0.03104 0 0.04548-0.005376 0.1418-0.0623 0.2238-0.1307 0.2734a0.9387 0.9387 0 0 0-0.08578 0.04599c-0.005764 0.002228-0.01137 0.004246-0.01705 0.006201l0.005684 5.167e-4a0.9387 0.9387 0 0 0-0.4429 0.7974 0.9387 0.9387 0 0 0 0.9384 0.939 0.9387 0.9387 0 0 0 0.9384-0.939 0.9387 0.9387 0 0 0-0.4517-0.8025l0.006201-5.168e-4c-0.006096-0.002097-0.01242-0.004306-0.0186-0.006718a0.9387 0.9387 0 0 0-0.07906-0.04134c-0.05941-0.04122-0.1108-0.1061-0.1292-0.2119v-0.03566-0.4449c0-0.00533-1.814e-4 -0.01078-5.168e-4 -0.01602 3.347e-4 -0.00524 5.168e-4 -0.01069 5.168e-4 -0.01602v-0.5255-0.1111-0.4449c0-0.00533-1.814e-4 -0.01078-5.168e-4 -0.01602 3.347e-4 -0.00524 5.168e-4 -0.01069 5.168e-4 -0.01602v-0.5255c0-0.1347-0.1081-0.2429-0.2429-0.2429h-0.04754z" fill="#ff2a2a" stroke-width=".033" style="paint-order:markers stroke fill"/></g><path d="m2.762 1.552c0.1462 0 0.2641 0.08971 0.2641 0.201 0 0.1113-0.1178 0.201-0.2641 0.201h-1.481c-0.1462 0-0.2641-0.08971-0.2641-0.201 0-0.1113 0.1178-0.201 0.2641-0.201zm-0.01654 0.7545c0.1462 0 0.2641 0.08971 0.2641 0.201 0 0.1113-0.1178 0.201-0.2641 0.201h-0.7948c-0.1462 0-0.2641-0.08971-0.2641-0.201 0-0.1113 0.1178-0.201 0.2641-0.201zm0 0.7545c0.1462 0 0.2641 0.08971 0.2641 0.201 0 0.1113-0.1178 0.201-0.2641 0.201h-1.481c-0.1462 0-0.2641-0.08971-0.2641-0.201 0-0.1113 0.1178-0.201 0.2641-0.201zm-0.02481 0.7545c0.1462 0 0.2641 0.08971 0.2641 0.201 0 0.1113-0.1178 0.201-0.2641 0.201h-0.7948c-0.1462 0-0.2641-0.08971-0.2641-0.201 0-0.1113 0.1178-0.201 0.2641-0.201zm0.0248 0.7545c0.1462 0 0.2641 0.08971 0.2641 0.201 0 0.1113-0.1178 0.201-0.2641 0.201h-1.481c-0.1462 0-0.2641-0.08971-0.2641-0.201 0-0.1113 0.1178-0.201 0.2641-0.201z" fill="#545454" stroke="#000" stroke-linecap="round" stroke-linejoin="round" stroke-width=".0471" style="paint-order:stroke markers fill"/></svg>
